Coordinates
version=1
nRows=29
nColumns=24
inDegrees=yes

Units are S.I. units (second, meters, Newtons, ...)
Angles are in degrees.

endheader
time	pelvis_tilt	pelvis_list	pelvis_rotation	pelvis_tx	pelvis_ty	pelvis_tz	hip_flexion_r	hip_adduction_r	hip_rotation_r	knee_angle_r	ankle_angle_r	subtalar_angle_r	mtp_angle_r	hip_flexion_l	hip_adduction_l	hip_rotation_l	knee_angle_l	ankle_angle_l	subtalar_angle_l	mtp_angle_l	lumbar_extension	lumbar_bending	lumbar_rotation
      0.47900000	     -1.33193058	      3.46705954	      1.58720614	     -0.80927267	      0.99700636	      0.30984822	     29.27440891	     -4.72265111	     -6.80631098	    -12.39811024	     -1.38384415	     -7.74890348	     -0.43725932	    -11.36591869	      4.77578647	     -5.55078600	     -6.55617373	     10.86370040	     -9.13094270	     -0.16608120	    -11.24234352	     -3.97604457	     -2.67958792
      0.48316667	     -1.22244034	      3.44300279	      1.59609538	     -0.80326372	      0.99624323	      0.31026068	     28.92355108	     -4.63191094	     -6.90029924	    -12.33028575	     -1.42472221	     -7.61627424	     -0.63781519	    -11.57161637	      4.65090413	     -5.68750780	     -7.15710814	     11.17031485	     -8.70475080	     -0.30741474	    -11.30486364	     -3.89778141	     -2.72750296
      0.48733333	     -0.99577107	      3.36590575	      1.60103702	     -0.79721351	      0.99577578	      0.31065268	     28.40348320	     -4.47772922	     -6.99109032	    -12.22503406	     -1.60005070	     -7.65251979	     -0.86789658	    -11.90980059	      4.47400855	     -5.72976544	     -7.74014831	     11.39812296	     -8.47997582	     -0.46902056	    -11.49488034	     -3.76048119	     -2.69214430
      0.49150000	     -0.79246295	      3.29533789	      1.57905585	     -0.79114751	      0.99529857	      0.31108066	     27.92632315	     -4.31991562	     -7.05492244	    -12.19663874	     -1.76001347	     -7.62336515	     -1.05779912	    -12.19259428	      4.30881209	     -5.78382179	     -8.38490567	     11.57238131	     -8.30366119	     -0.59998524	    -11.66434588	     -3.62178267	     -2.67328566
      0.49566667	     -0.62424295	      3.24215115	      1.57651245	     -0.78510188	      0.99481002	      0.31148004	     27.50601111	     -4.19307093	     -7.15714680	    -12.24928021	     -1.93073713	     -7.63334818	     -1.15255011	    -12.39289244	      4.15496656	     -5.81587713	     -9.11555087	     11.71772977	     -8.11004616	     -0.65938455	    -11.79418497	     -3.51263868	     -2.59407156
      0.49983333	     -0.38304298	      3.12629344	      1.52425737	     -0.77896769	      0.99450763	      0.31197673	     26.98163309	     -3.97415414	     -7.22477621	    -12.27605107	     -2.17399360	     -7.67116037	     -1.22817239	    -12.65431927	      3.93397361	     -5.93442548	     -9.88361284	     11.84102362	     -7.89176591	     -0.69848569	    -11.99904016	     -3.32355346	     -2.53411143
      0.50400000	     -0.17720108	      3.02057830	      1.45175337	     -0.77281876	      0.99419471	      0.31250205	     26.51146214	     -3.75907167	     -7.26809272	    -12.35546824	     -2.44435190	     -7.73789283	     -1.26785999	    -12.84417450	      3.72866060	     -6.05583615	    -10.71680279	     11.90685819	     -7.72817309	     -0.70289858	    -12.16167166	     -3.14662055	     -2.44165584
      0.50816667	      0.05716763	      2.89808528	      1.36013815	     -0.76665638	      0.99398519	      0.31307914	     26.00986557	     -3.51849131	     -7.30198729	    -12.44959918	     -2.74756368	     -7.82798163	     -1.27564597	    -13.02470851	      3.50109584	     -6.21137067	    -11.62363011	     11.93737418	     -7.54272339	     -0.67048238	    -12.35375604	     -2.95613693	     -2.32388071
      0.51233333	      0.27577746	      2.76605387	      1.23927391	     -0.76047757	      0.99380542	      0.31372054	     25.53126613	     -3.25571535	     -7.29479149	    -12.56298686	     -3.09282119	     -7.96585812	     -1.25273094	    -13.15207421	      3.26450966	     -6.40819686	    -12.60417027	     11.91345544	     -7.37689014	     -0.59606705	    -12.52395088	     -2.76025256	     -2.18856187
      0.51650000	      0.51807098	      2.61950218	      1.05916082	     -0.75427462	      0.99370686	      0.31450465	     25.03425263	     -2.95060295	     -7.21834201	    -12.68838752	     -3.45464644	     -8.13060452	     -1.17794277	    -13.27204352	      3.01367302	     -6.69058889	    -13.65268893	     11.85018210	     -7.19706738	     -0.43172589	    -12.71808978	     -2.56760927	     -2.03256475
      0.52066667	      0.74599509	      2.46563048	      0.87996038	     -0.74809960	      0.99364522	      0.31528812	     24.56262986	     -2.64445511	     -7.14465827	    -12.83925727	     -3.85506689	     -8.34739835	     -1.06424811	    -13.32430435	      2.74926779	     -6.98051329	    -14.79408738	     11.72947465	     -7.02092606	     -0.19080389	    -12.90150893	     -2.36240391	     -1.82196127
      0.52483333	      0.89231699	      2.32239542	      0.75642677	     -0.74193800	      0.99354705	      0.31593209	     24.18604710	     -2.38665987	     -7.13024727	    -13.02618274	     -4.25614463	     -8.57247250	     -0.97911362	    -13.22900962	      2.48891084	     -7.17942279	    -16.04276314	     11.52759589	     -6.92931438	     -0.00501071	    -12.99212866	     -2.16442151	     -1.60076433
      0.52900000	      1.16591322	      2.14180919	      0.45031846	     -0.73579687	      0.99363388	      0.31702028	     23.69789730	     -2.00011601	     -6.89708161	    -13.22211311	     -4.68338067	     -8.87736452	     -0.77548869	    -13.24969057	      2.19402637	     -7.65487851	    -17.33942421	     11.31537576	     -6.70506060	      0.45049088	    -13.23641650	     -1.95665114	     -1.32384736
      0.53316667	      1.25841597	      2.00859223	      0.31890974	     -0.72970912	      0.99357685	      0.31759839	     23.41626447	     -1.77510224	     -6.88100851	    -13.48738766	     -5.07640077	     -9.03520794	     -0.71334113	    -12.99205613	      1.94990974	     -7.80803072	    -18.76063710	     10.96721791	     -6.80614098	      0.60746383	    -13.27843559	     -1.74495681	     -1.11854021
      0.53733333	      1.49493944	      1.80516766	     -0.01606796	     -0.72361908	      0.99371220	      0.31882480	     22.99153216	     -1.35645060	     -6.58803391	    -13.73630155	     -5.49903779	     -9.51072624	     -0.50291554	    -12.86445098	      1.60011933	     -8.37375778	    -20.25297409	     10.60964442	     -6.48536830	      1.16523635	    -13.48557479	     -1.52975616	     -0.75845566
      0.54150000	      1.58795236	      1.63943391	     -0.18780507	     -0.71754723	      0.99376867	      0.31944263	     22.72925671	     -1.09999156	     -6.52751413	    -14.05557264	     -5.76529359	     -9.59970494	     -0.44021092	    -12.51126918	      1.31514815	     -8.57896233	    -21.83681662	     10.09910810	     -6.71291124	      1.34800892	    -13.52821163	     -1.28877198	     -0.55175230
      0.54566667	      1.74355341	      1.43498204	     -0.63174707	     -0.71154113	      0.99381359	      0.32099238	     22.44386693	     -0.63458428	     -6.06007824	    -14.40199113	     -6.07852475	    -10.13772726	     -0.13821371	    -12.19663731	      0.93975005	     -9.29561087	    -23.51986963	      9.63152096	     -6.41336536	      2.34185579	    -13.65182836	     -1.13433170	     -0.04863784
      0.54983333	      1.81881980	      1.26121963	     -0.84514484	     -0.70555707	      0.99391282	      0.32172557	     22.23575393	     -0.36542007	     -5.96168096	    -14.78424777	     -6.35870557	    -10.27873125	      2.11867658	    -11.71839594	      0.61245136	     -9.60337173	    -25.26292542	      8.87935435	     -6.69055953	     11.58863461	    -13.68670067	     -0.89975204	      0.27288191
      0.55400000	      1.92416936	      1.05769658	     -1.03474720	     -0.69965300	      0.99412461	      0.32244491	     21.98714580	     -0.07272305	     -5.85671283	    -15.16068409	     -6.58967425	    -10.47171797	      2.10505694	    -11.21133027	      0.23617538	     -9.87783268	    -27.11218453	      8.17232972	     -6.88006387	     11.62662638	    -13.77416086	     -0.63781674	      0.47679145
      0.55816667	      2.01059539	      0.82386617	     -1.27821702	     -0.69375433	      0.99430047	      0.32331426	     21.76838406	      0.27463632	     -5.67823092	    -15.56011513	     -6.74350100	    -10.65290071	      2.09347861	    -10.64301925	     -0.19211489	    -10.25343942	    -29.04009594	      7.41527753	     -7.04355904	     11.70740349	    -13.83445482	     -0.36032274	      0.77893429
      0.56233333	      2.04601377	      0.58810038	     -1.53625637	     -0.68790357	      0.99440703	      0.32421369	     21.62209096	      0.62620761	     -5.47610717	    -15.99979227	     -6.83344479	    -10.81400690	      2.08141073	     -9.97461416	     -0.63553196	    -10.63045882	    -31.04119471	      6.60788293	     -7.23788632	     11.82249702	    -13.85041312	     -0.07563772	      1.10618930
      0.56650000	      1.98421714	      0.38218083	     -1.92546857	     -0.68214349	      0.99427246	      0.32549775	     21.63383268	      1.01750696	     -5.07734526	    -16.53460862	     -6.77707568	    -11.02371642	      2.03618261	     -9.16820861	     -1.07353567	    -11.15943328	    -33.11425969	      5.78213114	     -7.35531612	     12.19608929	    -13.76536906	      0.13476448	      1.54253289
      0.57066667	      2.04979304	      0.09861818	     -2.07756847	     -0.67637198	      0.99452107	      0.32608126	     21.42377398	      1.34961834	     -5.02670169	    -16.94394431	     -6.79045481	    -11.04107464	      2.02126200	     -8.43824637	     -1.58944900	    -11.37851264	    -35.22148582	      4.85692315	     -7.72562262	     12.31396412	    -13.83268271	      0.50733098	      1.80360811
      0.57483333	      2.01800559	     -0.19240349	     -2.26339534	     -0.67064133	      0.99457931	      0.32680206	     21.32866502	      1.71388439	     -4.91550783	    -17.37459547	     -6.73169326	    -11.08217890	      2.00311217	     -7.56351316	     -2.14010524	    -11.63905126	    -37.40362472	      3.95787595	     -8.06938245	     12.45438165	    -13.79195412	      0.87819496	      2.08175389
      0.57900000	      1.85361513	     -0.44554745	     -2.49757480	     -0.66502865	      0.99433615	      0.32771634	     21.42176002	      2.07564710	     -4.71212748	    -17.89392366	     -6.53760243	    -11.18144040	      1.95748842	     -6.50252931	     -2.67560766	    -11.91808057	    -39.65083169	      3.07852266	     -8.36376780	     12.72861390	    -13.60454604	      1.16973441	      2.41349009
      0.58316667	      1.75714339	     -0.75500404	     -2.67163632	     -0.65937694	      0.99427749	      0.32843149	     21.38655021	      2.45385076	     -4.62445979	    -18.31987111	     -6.37026806	    -11.16240164	      1.91528168	     -5.49777198	     -3.27264498	    -12.12630859	    -41.89297559	      2.17339979	     -8.78186001	     12.92739182	    -13.49800701	      1.55517179	      2.69580694
      0.58733333	      1.63520842	     -1.07326629	     -2.82792867	     -0.65378496	      0.99416594	      0.32909053	     21.37149910	      2.83207647	     -4.55846766	    -18.73532191	     -6.16728630	    -11.10986653	      1.87412171	     -4.43741449	     -3.88252583	    -12.27944434	    -44.15222411	      1.32215247	     -9.22573460	     13.07279380	    -13.37325407	      1.95946876	      2.95597906
      0.59150000	      1.48339299	     -1.40512952	     -2.96590609	     -0.64822368	      0.99400383	      0.32972291	     21.37528907	      3.21820004	     -4.52232691	    -19.13230569	     -5.92596428	    -11.05136587	      1.83200686	     -3.32421927	     -4.51523014	    -12.38790740	    -46.41543707	      0.52175979	     -9.67949579	     13.16732510	    -13.21542424	      2.37388564	      3.19681175
      0.59566667	      1.31708132	     -1.74510183	     -3.08058574	     -0.64268822	      0.99384289	      0.33029575	     21.37206918	      3.60320677	     -4.51492954	    -19.48782749	     -5.67857211	    -10.97002443	      1.79392590	     -2.17806310	     -5.15478245	    -12.43993862	    -48.65986016	     -0.22953530	    -10.16646950	     13.19612287	    -13.04492246	      2.81100356	      3.43882121
